<svg width="957" height="570" viewBox="0 0 957 570" fill="none" xmlns="http://www.w3.org/2000/svg">
<g filter="url(#filter0_d_1014_205)">
<g clip-path="url(#clip0_1014_205)">
<path d="M491.613 477.293C489.153 477.293 486.667 477.254 484.227 477.176L484.283 475.363C487.786 475.474 491.361 475.505 494.881 475.456L494.905 477.27C493.81 477.285 492.712 477.293 491.613 477.293ZM505.577 476.873L505.473 475.061C508.982 474.85 512.535 474.552 516.035 474.177L516.22 475.981C512.693 476.359 509.113 476.66 505.577 476.873ZM473.565 476.59C470.027 476.313 466.452 475.949 462.938 475.508L463.155 473.707C466.642 474.144 470.189 474.506 473.7 474.78L473.565 476.59ZM526.811 474.594L526.546 472.801C530.031 472.259 533.544 471.631 536.983 470.932L537.329 472.711C533.863 473.416 530.324 474.049 526.811 474.594ZM452.373 473.931C448.878 473.324 445.35 472.628 441.887 471.859L442.263 470.085C445.7 470.849 449.2 471.54 452.669 472.141L452.373 473.931ZM547.753 470.336L547.327 468.574C550.749 467.708 554.19 466.751 557.554 465.73L558.059 467.471C554.668 468.499 551.201 469.464 547.753 470.336ZM431.507 469.295C428.078 468.362 424.628 467.336 421.252 466.243L421.787 464.514C425.137 465.597 428.561 466.616 431.962 467.541L431.507 469.295ZM568.224 464.122L567.642 462.408C570.962 461.227 574.302 459.95 577.569 458.612L578.228 460.297C574.936 461.645 571.57 462.932 568.224 464.122ZM411.12 462.701C407.791 461.448 404.44 460.097 401.163 458.685L401.852 457.012C405.104 458.413 408.428 459.754 411.733 460.997L411.12 462.701ZM588.026 456.015L587.292 454.363C590.481 452.88 593.686 451.298 596.819 449.659L597.626 451.276C594.469 452.927 591.24 454.521 588.026 456.015ZM391.4 454.205C388.2 452.645 384.987 450.985 381.853 449.271L382.688 447.671C385.799 449.371 388.987 451.019 392.163 452.568L391.4 454.205ZM607.004 446.089L606.126 444.514C609.184 442.728 612.237 440.851 615.198 438.934L616.145 440.467C613.162 442.399 610.086 444.291 607.004 446.089ZM372.539 443.895C369.495 442.042 366.446 440.088 363.479 438.088L364.455 436.573C367.4 438.558 370.425 440.497 373.446 442.335L372.539 443.895ZM625.028 434.422L624.013 432.935C626.892 430.877 629.766 428.721 632.554 426.529L633.635 427.968C630.826 430.177 627.93 432.349 625.028 434.422ZM354.69 431.867C351.827 429.739 348.967 427.51 346.189 425.241L347.296 423.823C350.053 426.075 352.891 428.287 355.732 430.397L354.69 431.867ZM641.946 421.118L640.803 419.73C643.487 417.413 646.158 414.998 648.743 412.552L649.947 413.885C647.343 416.35 644.651 418.783 641.946 421.118ZM337.995 418.227C335.328 415.838 332.679 413.354 330.122 410.841L331.35 409.532C333.888 412.025 336.517 414.491 339.163 416.863L337.995 418.227ZM657.62 406.285L656.357 405.011C658.831 402.445 661.279 399.79 663.63 397.12L664.949 398.334C662.579 401.026 660.113 403.7 657.62 406.285ZM322.588 403.098C320.142 400.466 317.726 397.746 315.407 395.013L316.747 393.824C319.048 396.536 321.445 399.236 323.873 401.847L322.588 403.098ZM671.916 390.05L670.546 388.898C672.781 386.115 674.982 383.243 677.089 380.36L678.51 381.446C676.387 384.351 674.169 387.246 671.916 390.05ZM308.595 386.605C306.398 383.765 304.235 380.832 302.166 377.89L303.605 376.83C305.659 379.75 307.806 382.66 309.986 385.479L308.595 386.605ZM684.712 372.543L683.245 371.524C685.223 368.544 687.161 365.477 689.003 362.406L690.515 363.356C688.657 366.45 686.705 369.54 684.712 372.543ZM296.134 368.886C294.201 365.855 292.31 362.736 290.511 359.613L292.039 358.691C293.824 361.79 295.701 364.886 297.619 367.894L296.134 368.886ZM695.9 353.905L694.348 353.027C696.051 349.874 697.705 346.636 699.267 343.403L700.857 344.208C699.284 347.465 697.616 350.728 695.9 353.905ZM285.31 350.089C283.656 346.89 282.052 343.608 280.543 340.334L282.147 339.56C283.644 342.808 285.236 346.066 286.878 349.24L285.31 350.089ZM705.373 334.286L703.748 333.557C705.161 330.254 706.518 326.872 707.782 323.505L709.438 324.155C708.165 327.549 706.796 330.957 705.373 334.286ZM276.219 330.37C274.859 327.031 273.557 323.615 272.349 320.215L274.016 319.595C275.215 322.969 276.507 326.358 277.856 329.671L276.219 330.37ZM713.043 313.841L711.359 313.27C712.466 309.857 713.51 306.37 714.463 302.902L716.171 303.393C715.21 306.887 714.157 310.402 713.043 313.841ZM268.932 309.864C267.877 306.405 266.885 302.872 265.985 299.361L267.7 298.9C268.594 302.385 269.578 305.891 270.625 309.323L268.932 309.864ZM718.824 292.809L717.096 292.398C717.89 288.9 718.616 285.328 719.254 281.783L720.998 282.111C720.356 285.685 719.624 289.283 718.824 292.809ZM263.515 288.731C262.775 285.187 262.106 281.576 261.525 277.996L263.275 277.699C263.851 281.251 264.515 284.835 265.249 288.352L263.515 288.731ZM722.689 271.324L720.931 271.077C721.408 267.523 721.811 263.899 722.129 260.305L723.895 260.468C723.575 264.09 723.169 267.742 722.689 271.324V271.324ZM260.019 267.18C259.601 263.588 259.258 259.929 258.998 256.306L260.768 256.173C261.024 259.77 261.366 263.4 261.781 266.966L260.019 267.18ZM724.618 249.568L722.846 249.487C723.003 245.891 723.084 242.244 723.084 238.647H724.857C724.858 242.271 724.777 245.946 724.618 249.568L724.618 249.568ZM258.461 245.393C258.4 243.168 258.369 240.897 258.369 238.647C258.369 237.25 258.381 235.856 258.404 234.465L260.178 234.497C260.154 235.878 260.143 237.261 260.143 238.647C260.143 240.881 260.174 243.134 260.234 245.343L258.461 245.393ZM723.071 236.115C723.034 232.517 722.917 228.87 722.722 225.275L724.492 225.174C724.689 228.796 724.807 232.471 724.844 236.096L723.071 236.115ZM260.599 223.663L258.828 223.549C259.05 219.923 259.355 216.261 259.736 212.664L261.499 212.859C261.121 216.429 260.819 220.064 260.599 223.663ZM721.892 214.466C721.538 210.889 721.097 207.269 720.583 203.706L722.337 203.441C722.855 207.031 723.299 210.678 723.657 214.283L721.892 214.466ZM262.88 202.109L261.127 201.832C261.671 198.242 262.302 194.623 263.004 191.075L264.742 191.435C264.046 194.956 263.419 198.547 262.88 202.109ZM718.792 193.021C718.116 189.481 717.353 185.917 716.523 182.429L718.247 182.001C719.083 185.515 719.852 189.106 720.533 192.673L718.792 193.021ZM267.082 180.861L265.361 180.419C266.222 176.904 267.176 173.36 268.197 169.885L269.895 170.407C268.883 173.856 267.936 177.373 267.082 180.861ZM713.78 171.956C712.791 168.5 711.71 165.024 710.567 161.623L712.244 161.033C713.396 164.46 714.485 167.964 715.482 171.445L713.78 171.956ZM273.187 160.069L271.514 159.467C272.693 156.036 273.966 152.589 275.297 149.222L276.941 149.902C275.62 153.244 274.357 156.665 273.187 160.069ZM706.892 151.453C705.598 148.113 704.212 144.762 702.773 141.49L704.39 140.745C705.841 144.042 707.237 147.419 708.541 150.784L706.892 151.453ZM281.148 139.927L279.537 139.169C281.018 135.868 282.595 132.558 284.223 129.331L285.799 130.163C284.183 133.366 282.619 136.651 281.148 139.927ZM698.211 131.728C696.624 128.524 694.942 125.314 693.212 122.187L694.755 121.293C696.499 124.444 698.193 127.679 699.792 130.907L698.211 131.728ZM290.884 120.631L289.346 119.725C291.116 116.582 292.982 113.435 294.893 110.373L296.387 111.35C294.491 114.388 292.639 117.511 290.884 120.631ZM687.79 112.886C685.916 109.833 683.954 106.792 681.957 103.847L683.414 102.812C685.426 105.781 687.404 108.845 689.292 111.921L687.79 112.886ZM302.3 102.339L300.85 101.293C302.895 98.326 305.033 95.3685 307.206 92.5028L308.607 93.6149C306.451 96.4593 304.329 99.3942 302.3 102.339ZM675.725 95.0868C673.588 92.2223 671.362 89.3747 669.107 86.6233L670.467 85.4576C672.738 88.2303 674.981 91.0991 677.135 93.9853L675.725 95.0868ZM315.296 85.197L313.945 84.0202C316.24 81.2626 318.632 78.5177 321.054 75.862L322.35 77.0999C319.947 79.7358 317.573 82.4602 315.296 85.197ZM662.12 78.4748C659.737 75.8213 657.266 73.1912 654.775 70.6586L656.025 69.3711C658.535 71.9236 661.025 74.5731 663.426 77.2466L662.12 78.4748ZM329.756 69.3427L328.515 68.0454C331.052 65.5066 333.676 62.9966 336.316 60.5855L337.497 61.9395C334.878 64.3321 332.273 66.823 329.756 69.3427V69.3427ZM647.09 63.1907C644.479 60.7676 641.783 58.3777 639.077 56.0874L640.208 54.6891C642.934 56.9967 645.651 59.4047 648.282 61.8465L647.09 63.1907ZM345.558 54.9045L344.438 53.4973C347.181 51.2115 350.016 48.9572 352.865 46.7968L353.922 48.2544C351.094 50.3989 348.28 52.636 345.558 54.9045V54.9045ZM630.756 49.363C627.939 47.1924 625.04 45.0626 622.14 43.0329L623.141 41.5353C626.064 43.5801 628.984 45.7259 631.823 47.9133L630.756 49.363ZM362.57 42.0036L361.58 40.4981C364.516 38.4768 367.539 36.4977 370.564 34.6142L371.486 36.1649C368.483 38.0338 365.484 39.9984 362.57 42.0037V42.0036ZM613.249 37.1118C610.252 35.2136 607.174 33.3634 604.101 31.6115L604.963 30.0262C608.06 31.7914 611.162 33.6563 614.183 35.5681L613.249 37.1118ZM380.651 30.7507L379.799 29.1583C382.906 27.4192 386.091 25.732 389.266 24.1428L390.045 25.7732C386.894 27.3501 383.734 29.0245 380.651 30.7507ZM594.712 26.546C591.557 24.9371 588.323 23.3829 585.103 21.9265L585.82 20.2668C589.066 21.7342 592.324 23.3005 595.504 24.9217L594.712 26.546ZM399.649 21.2429L398.944 19.5778C402.19 18.1383 405.511 16.7577 408.813 15.4741L409.443 17.1711C406.165 18.4445 402.87 19.8144 399.649 21.2429H399.649ZM575.293 17.7635C572.009 16.4604 568.648 15.2172 565.302 14.0687L565.867 12.3479C569.238 13.5056 572.625 14.7581 575.934 16.0718L575.293 17.7635ZM419.434 13.5561L418.881 11.8317C422.252 10.701 425.691 9.63628 429.103 8.66818L429.577 10.4165C426.191 11.3775 422.779 12.4338 419.434 13.5561ZM555.18 10.8578C551.797 9.87111 548.346 8.95218 544.924 8.12676L545.332 6.36069C548.78 7.19232 552.257 8.11833 555.666 9.11214L555.18 10.8578ZM439.851 7.75855L439.456 5.98939C442.912 5.18167 446.432 4.44573 449.918 3.8024L450.233 5.58797C446.773 6.22686 443.28 6.95705 439.851 7.75855ZM534.557 5.88305C531.103 5.21974 527.585 4.62961 524.1 4.12895L524.346 2.33188C527.858 2.83653 531.403 3.43111 534.884 4.09926L534.557 5.88305ZM460.703 3.9083L460.468 2.10944C463.979 1.63005 467.55 1.22685 471.081 0.912276L471.235 2.71999C467.731 3.0328 464.188 3.43246 460.703 3.90831V3.9083ZM513.574 2.86709C510.081 2.53036 506.524 2.27072 503.004 2.0966L503.09 0.283605C506.637 0.459505 510.22 0.720912 513.741 1.06034L513.574 2.86709ZM481.812 2.02393L481.737 0.2109C484.997 0.0717772 488.32 0.000889254 491.613 0L492.416 0.00134305L492.411 1.81615L491.613 1.8148C488.345 1.8157 485.047 1.88615 481.812 2.02395V2.02393Z" fill="#3F3D56"/>
<path d="M718.81 436.707C716.705 436.707 714.647 436.068 712.897 434.872C711.147 433.675 709.783 431.975 708.977 429.985C708.172 427.995 707.961 425.806 708.372 423.694C708.782 421.581 709.796 419.641 711.284 418.118C712.773 416.595 714.669 415.558 716.733 415.138C718.798 414.718 720.938 414.934 722.882 415.758C724.827 416.582 726.489 417.978 727.658 419.768C728.828 421.559 729.452 423.664 729.452 425.818C729.449 428.705 728.326 431.472 726.331 433.514C724.336 435.555 721.631 436.703 718.81 436.707ZM718.81 416.744C717.055 416.744 715.341 417.276 713.882 418.273C712.424 419.27 711.287 420.687 710.616 422.345C709.945 424.003 709.769 425.828 710.111 427.588C710.454 429.348 711.298 430.965 712.539 432.234C713.779 433.503 715.359 434.367 717.079 434.718C718.8 435.068 720.583 434.888 722.203 434.201C723.824 433.514 725.209 432.351 726.183 430.859C727.158 429.367 727.678 427.613 727.678 425.818C727.676 423.412 726.74 421.106 725.078 419.405C723.415 417.703 721.161 416.747 718.81 416.744Z" fill="#2F2E41"/>
<path d="M435.726 157.352V216.95C435.725 217.501 435.51 218.029 435.13 218.418C434.749 218.807 434.233 219.027 433.695 219.028H432.25V529.496C432.249 538.087 428.913 546.327 422.976 552.402C417.038 558.477 408.985 561.89 400.589 561.89H210.987C206.83 561.89 202.713 561.051 198.872 559.423C195.032 557.795 191.542 555.409 188.603 552.401C185.664 549.393 183.333 545.822 181.742 541.891C180.152 537.961 179.334 533.749 179.335 529.496V229.917H178.288C177.908 229.918 177.544 229.764 177.275 229.49C177.005 229.217 176.853 228.845 176.851 228.456V194.537C176.851 194.344 176.889 194.153 176.961 193.975C177.033 193.797 177.139 193.634 177.272 193.498C177.406 193.361 177.564 193.253 177.738 193.179C177.913 193.105 178.099 193.067 178.288 193.067H179.335V180.291H178.279C177.881 180.29 177.499 180.126 177.218 179.837C176.937 179.548 176.78 179.156 176.781 178.749V145.293C176.782 144.886 176.94 144.497 177.221 144.21C177.501 143.922 177.882 143.76 178.279 143.759H179.335V126.319H178.262C178.087 126.319 177.914 126.284 177.752 126.216C177.591 126.148 177.444 126.047 177.32 125.921C177.197 125.794 177.099 125.644 177.032 125.479C176.965 125.314 176.931 125.137 176.931 124.958V106.701C176.93 106.339 177.07 105.991 177.319 105.734C177.569 105.478 177.908 105.332 178.262 105.331H179.335V68.3632C179.335 59.7742 182.67 51.5371 188.606 45.4638C194.542 39.3904 202.592 35.9783 210.987 35.978H400.589C408.984 35.978 417.036 39.3897 422.973 45.4628C428.911 51.536 432.247 59.7733 432.25 68.3632V155.274H433.695C434.233 155.276 434.749 155.495 435.13 155.884C435.51 156.274 435.725 156.801 435.726 157.352Z" fill="#3F3D56"/>
<path d="M314.922 52.5896H284.113C282.868 52.5896 281.859 53.6223 281.859 54.8961V57.6207C281.859 58.8946 282.868 59.9272 284.113 59.9272H314.922C316.167 59.9272 317.177 58.8946 317.177 57.6207V54.8961C317.177 53.6223 316.167 52.5896 314.922 52.5896Z" fill="#E6E8EC"/>
<path d="M326.585 60.4203C328.831 60.4203 330.652 58.5569 330.652 56.2584C330.652 53.9598 328.831 52.0964 326.585 52.0964C324.338 52.0964 322.517 53.9598 322.517 56.2584C322.517 58.5569 324.338 60.4203 326.585 60.4203Z" fill="#E6E8EC"/>
<path d="M417.089 74.7693V532.182C417.086 537.631 414.969 542.856 411.202 546.709C407.435 550.561 402.327 552.725 397.001 552.725H215.505C212.867 552.73 210.253 552.202 207.815 551.171C205.376 550.141 203.16 548.628 201.294 546.719C199.428 544.811 197.948 542.544 196.94 540.05C195.932 537.555 195.414 534.881 195.418 532.182V74.7693C195.418 72.0703 195.937 69.3977 196.947 66.904C197.956 64.4104 199.436 62.1447 201.301 60.2362C203.166 58.3276 205.381 56.8138 207.818 55.7809C210.255 54.7481 212.867 54.2166 215.505 54.2167H242.67V57.7828C242.67 62.271 244.412 66.5754 247.514 69.7491C250.616 72.9228 254.823 74.7058 259.21 74.7058H351.514C355.901 74.7058 360.108 72.9228 363.21 69.7491C366.312 66.5755 368.054 62.271 368.054 57.7828V54.2167H397.001C399.639 54.2158 402.252 54.7468 404.689 55.7794C407.127 56.8119 409.342 58.3258 411.207 60.2345C413.073 62.1431 414.552 64.4092 415.561 66.9031C416.57 69.3971 417.089 72.0701 417.089 74.7693Z" fill="#05023B"/>
<path opacity="0.2" d="M410.029 204.166H204.278V306.702H410.029V204.166Z" fill="black"/>
<path d="M732.846 87.1106H527.095V189.647H732.846V87.1106Z" fill="#F2F2F2"/>
<path d="M410.029 359.585H204.278V462.121H410.029V359.585Z" fill="#3F3D56"/>
<path d="M388.745 128.197C398.541 128.197 406.482 120.072 406.482 110.049C406.482 100.026 398.541 91.901 388.745 91.901C378.949 91.901 371.007 100.026 371.007 110.049C371.007 120.072 378.949 128.197 388.745 128.197Z" fill="white"/>
<path d="M396.727 109.465H389.314V101.882H388.175V109.465H380.763V110.632H388.175V118.215H389.314V110.632H396.727V109.465Z" fill="#3F3D56"/>
<path d="M709.788 73.4995H504.036V176.036H709.788V73.4995Z" fill="#3F3D56"/>
<path d="M595.885 142.344C601.271 162.716 619.72 175.332 619.72 175.332C619.72 175.332 629.436 154.92 624.05 134.549C618.664 114.178 600.215 101.561 600.215 101.561C600.215 101.561 590.499 121.973 595.885 142.344Z" fill="white"/>
<path d="M603.8 137.966C618.579 152.687 620.384 175.315 620.384 175.315C620.384 175.315 598.227 174.078 583.448 159.357C568.669 144.637 566.864 122.008 566.864 122.008C566.864 122.008 589.02 123.246 603.8 137.966Z" fill="#05023B"/>
<path d="M287.118 429.991C292.504 450.362 310.953 462.978 310.953 462.978C310.953 462.978 320.668 442.567 315.282 422.195C309.896 401.824 291.448 389.208 291.448 389.208C291.448 389.208 281.732 409.62 287.118 429.991Z" fill="white"/>
<path d="M295.033 425.613C309.812 440.333 311.617 462.962 311.617 462.962C311.617 462.962 289.46 461.724 274.681 447.004C259.901 432.283 258.096 409.655 258.096 409.655C258.096 409.655 280.253 410.892 295.033 425.613Z" fill="#05023B"/>
<path d="M336.116 429.991C330.73 450.362 312.282 462.978 312.282 462.978C312.282 462.978 302.566 442.567 307.952 422.195C313.338 401.824 331.786 389.208 331.786 389.208C331.786 389.208 341.502 409.62 336.116 429.991Z" fill="white"/>
<path d="M328.202 425.613C313.422 440.333 311.617 462.962 311.617 462.962C311.617 462.962 333.774 461.724 348.553 447.004C363.333 432.283 365.138 409.655 365.138 409.655C365.138 409.655 342.981 410.892 328.202 425.613Z" fill="#05023B"/>
<path d="M550.153 305.396H532.646V287.483H550.153V305.396ZM533.992 304.018H548.807V288.861H533.992V304.018Z" fill="#3F3D56"/>
<path d="M90.4436 416.172L78.502 403.073L91.3049 390.854L103.246 403.954L90.4436 416.172ZM80.4054 403.141L90.5098 414.225L101.343 403.886L91.2386 392.802L80.4054 403.141Z" fill="#2F2E41"/>
<path d="M99.903 134.327C104.84 134.327 108.841 130.233 108.841 125.182C108.841 120.131 104.84 116.036 99.903 116.036C94.9665 116.036 90.9647 120.131 90.9647 125.182C90.9647 130.233 94.9665 134.327 99.903 134.327Z" fill="#3F3D56"/>
<path d="M99.9031 151.602C94.7961 151.602 89.8037 150.052 85.5573 147.149C81.3109 144.246 78.0013 140.12 76.0469 135.292C74.0925 130.465 73.5811 125.153 74.5775 120.028C75.5738 114.903 78.0331 110.195 81.6443 106.5C85.2556 102.805 89.8566 100.289 94.8656 99.2696C99.8745 98.2502 105.066 98.7734 109.785 100.773C114.503 102.773 118.536 106.159 121.373 110.504C124.211 114.848 125.725 119.957 125.725 125.182C125.717 132.186 122.994 138.902 118.153 143.855C113.313 148.808 106.749 151.594 99.9031 151.602ZM99.9031 100.794C95.1889 100.794 90.5806 102.225 86.6608 104.904C82.7411 107.584 79.686 111.393 77.882 115.849C76.0779 120.305 75.6059 125.209 76.5256 129.94C77.4453 134.67 79.7154 139.016 83.0489 142.427C86.3823 145.837 90.6294 148.16 95.253 149.101C99.8767 150.042 104.669 149.559 109.025 147.713C113.38 145.867 117.103 142.741 119.722 138.731C122.341 134.72 123.739 130.005 123.739 125.182C123.731 118.716 121.218 112.517 116.749 107.945C112.281 103.373 106.222 100.802 99.9031 100.794Z" fill="#2F2E41"/>
<path d="M926.182 560.149H4V561.964H926.182V560.149Z" fill="#3F3D56"/>
<path d="M454.372 187.832H248.621V290.369H454.372V187.832Z" fill="#3F3D56"/>
<path d="M352.514 222.989H350.74V290.51H352.514V222.989Z" fill="white"/>
<path d="M351.627 233.444C356.782 233.444 360.96 229.169 360.96 223.896C360.96 218.622 356.782 214.347 351.627 214.347C346.473 214.347 342.295 218.622 342.295 223.896C342.295 229.169 346.473 233.444 351.627 233.444Z" fill="#05023B"/>
<path d="M351.627 264.603C351.627 264.603 350.294 235.265 322.964 238.675L351.627 264.603Z" fill="white"/>
<path d="M637.248 466.763L523.117 503.296L381.141 411.631L381.135 411.625L380.67 411.331L380.593 411.279L379.464 410.555L365.947 401.852C365.973 401.617 366.005 401.389 366.049 401.167C366.256 400.092 366.736 399.091 367.439 398.264C367.684 397.968 367.953 397.693 368.243 397.442H368.249C368.376 397.331 368.51 397.22 368.651 397.116C368.791 397.005 368.937 396.901 369.09 396.803C371.705 395.009 375.645 394.245 379.751 394.017C388.619 393.586 397.441 395.543 405.338 399.693C421.298 407.952 455.601 424.202 460.95 414.247C467.964 401.2 388.263 255.721 388.263 255.721C381.702 238.465 386.504 232.829 389.513 231.054C389.602 231.002 389.692 230.95 389.775 230.904C390.093 230.736 390.424 230.593 390.763 230.474C390.94 230.408 391.121 230.353 391.305 230.311C391.353 230.297 391.402 230.286 391.451 230.278L402.023 244.656L402.182 244.872L402.75 245.648L402.922 245.883L467.008 333.027C565.199 278.88 598.992 423.707 598.992 423.707L637.248 466.763Z" fill="#FBBEBE"/>
<path d="M402.922 245.883C402.689 246.374 402.323 246.786 401.867 247.069C401.411 247.353 400.885 247.496 400.352 247.481C399.999 247.48 399.648 247.431 399.307 247.337C396.935 246.685 394.187 244.023 392.134 240.39C390.131 236.841 389.309 233.272 389.775 230.904C390.093 230.736 390.424 230.593 390.763 230.474C390.94 230.408 391.121 230.353 391.305 230.311C390.482 231.961 390.973 235.712 393.243 239.737C395.098 243.032 397.611 245.524 399.632 246.072C399.879 246.177 400.146 246.223 400.413 246.205C400.679 246.188 400.939 246.107 401.17 245.97C401.402 245.833 401.599 245.643 401.747 245.415C401.895 245.187 401.989 244.928 402.023 244.656L402.182 244.872L402.75 245.648L402.922 245.883Z" fill="#3F3D56"/>
<path d="M380.669 411.331L380.593 411.279L379.464 410.555C379.471 408.696 378.094 405.649 375.052 402.589C372.483 400.026 369.499 398.342 367.439 398.264C367.684 397.968 367.953 397.693 368.243 397.442H368.249C368.376 397.331 368.51 397.22 368.651 397.116C371.427 397.954 373.941 399.519 375.945 401.656C379.286 405.016 381.122 408.846 380.669 411.331Z" fill="#3F3D56"/>
<path d="M844.513 411.225C869.568 488.377 860.769 560.817 860.769 560.817C860.769 560.817 811.347 508.17 786.291 431.018C761.236 353.866 770.036 281.426 770.036 281.426C770.036 281.426 819.458 334.073 844.513 411.225Z" fill="#05023B"/>
<path d="M877.025 411.225C851.969 488.377 860.769 560.817 860.769 560.817C860.769 560.817 910.191 508.17 935.246 431.018C960.301 353.866 951.502 281.426 951.502 281.426C951.502 281.426 902.08 334.073 877.025 411.225Z" fill="#05023B"/>
<path d="M887.116 412.059C888.795 493.34 859.488 559.895 859.488 559.895C859.488 559.895 827.458 494.667 825.778 413.386C824.099 332.104 853.406 265.55 853.406 265.55C853.406 265.55 885.437 330.778 887.116 412.059Z" fill="#3F3D56"/>
<path d="M856.447 348.182C860.742 348.182 864.224 344.619 864.224 340.225C864.224 335.83 860.742 332.268 856.447 332.268C852.152 332.268 848.67 335.83 848.67 340.225C848.67 344.619 852.152 348.182 856.447 348.182Z" fill="#05023B"/>
<path d="M841.325 408.302C843.712 408.302 845.646 406.323 845.646 403.881C845.646 401.44 843.712 399.461 841.325 399.461C838.939 399.461 837.005 401.44 837.005 403.881C837.005 406.323 838.939 408.302 841.325 408.302Z" fill="#05023B"/>
<path d="M788.615 364.538C791.001 364.538 792.936 362.559 792.936 360.117C792.936 357.676 791.001 355.697 788.615 355.697C786.229 355.697 784.294 357.676 784.294 360.117C784.294 362.559 786.229 364.538 788.615 364.538Z" fill="#3F3D56"/>
<path d="M941.129 321.658C943.516 321.658 945.45 319.679 945.45 317.238C945.45 314.796 943.516 312.817 941.129 312.817C938.743 312.817 936.809 314.796 936.809 317.238C936.809 319.679 938.743 321.658 941.129 321.658Z" fill="#3F3D56"/>
<path d="M811.082 406.092C813.468 406.092 815.402 404.112 815.402 401.671C815.402 399.23 813.468 397.25 811.082 397.25C808.696 397.25 806.761 399.23 806.761 401.671C806.761 404.112 808.696 406.092 811.082 406.092Z" fill="#3F3D56"/>
<path d="M901.813 380.452C904.199 380.452 906.133 378.473 906.133 376.032C906.133 373.59 904.199 371.611 901.813 371.611C899.427 371.611 897.492 373.59 897.492 376.032C897.492 378.473 899.427 380.452 901.813 380.452Z" fill="#3F3D56"/>
<path d="M813.674 471.074C816.06 471.074 817.995 469.095 817.995 466.654C817.995 464.212 816.06 462.233 813.674 462.233C811.288 462.233 809.354 464.212 809.354 466.654C809.354 469.095 811.288 471.074 813.674 471.074Z" fill="#3F3D56"/>
<path d="M906.133 445.877C908.519 445.877 910.454 443.898 910.454 441.456C910.454 439.015 908.519 437.036 906.133 437.036C903.747 437.036 901.812 439.015 901.812 441.456C901.812 443.898 903.747 445.877 906.133 445.877Z" fill="#3F3D56"/>
<path d="M864.224 450.298C866.61 450.298 868.545 448.318 868.545 445.877C868.545 443.435 866.61 441.456 864.224 441.456C861.838 441.456 859.904 443.435 859.904 445.877C859.904 448.318 861.838 450.298 864.224 450.298Z" fill="#05023B"/>
</g>
</g>
<defs>
<filter id="filter0_d_1014_205" x="0" y="0" width="957" height="570" filterUnits="userSpaceOnUse" color-interpolation-filters="sRGB">
<feFlood flood-opacity="0" result="BackgroundImageFix"/>
<feColorMatrix in="SourceAlpha" type="matrix" values="0 0 0 0 0 0 0 0 0 0 0 0 0 0 0 0 0 0 127 0" result="hardAlpha"/>
<feOffset dy="4"/>
<feGaussianBlur stdDeviation="2"/>
<feComposite in2="hardAlpha" operator="out"/>
<feColorMatrix type="matrix" values="0 0 0 0 0 0 0 0 0 0 0 0 0 0 0 0 0 0 0.25 0"/>
<feBlend mode="normal" in2="BackgroundImageFix" result="effect1_dropShadow_1014_205"/>
<feBlend mode="normal" in="SourceGraphic" in2="effect1_dropShadow_1014_205" result="shape"/>
</filter>
<clipPath id="clip0_1014_205">
<rect width="949" height="562" fill="white" transform="translate(4)"/>
</clipPath>
</defs>
</svg>
